<svg width="24" height="24" viewBox="0 0 24 24" fill="none" xmlns="http://www.w3.org/2000/svg">
<path d="M22 7.625V18.875C22 19.9102 21.1602 20.75 20.125 20.75H3.875C2.83984 20.75 2 19.9102 2 18.875V7.625C2 6.58984 2.83984 5.75 3.875 5.75H7.3125L7.79297 4.46484C8.06641 3.73437 8.76562 3.25 9.54688 3.25H14.4492C15.2305 3.25 15.9297 3.73437 16.2031 4.46484L16.6875 5.75H20.125C21.1602 5.75 22 6.58984 22 7.625ZM16.6875 13.25C16.6875 10.6641 14.5859 8.5625 12 8.5625C9.41406 8.5625 7.3125 10.6641 7.3125 13.25C7.3125 15.8359 9.41406 17.9375 12 17.9375C14.5859 17.9375 16.6875 15.8359 16.6875 13.25ZM15.4375 13.25C15.4375 15.1445 13.8945 16.6875 12 16.6875C10.1055 16.6875 8.5625 15.1445 8.5625 13.25C8.5625 11.3555 10.1055 9.8125 12 9.8125C13.8945 9.8125 15.4375 11.3555 15.4375 13.25Z" fill="#25272B"/>
</svg>
